<svg width="395" height="443" viewBox="0 0 395 443" fill="none" xmlns="http://www.w3.org/2000/svg">
<path d="M390.843 402.637C390.45 415.323 390.031 428.35 389.98 436.513H304.29C308.916 405.329 311.268 373.884 311.322 342.364C311.322 340.555 308.549 340.555 308.525 342.364C308.472 373.884 306.145 405.329 301.491 436.513H203.596V419.716H228.742C236.455 419.716 242.699 413.466 242.699 405.749V333.052C242.699 332.056 242.572 331.112 242.361 330.199C242.413 330.458 242.464 330.722 242.493 330.984C242.046 331.374 241.473 331.821 240.714 332.37C238.544 330.331 239.957 328.55 240.896 326.667C241.028 326.77 241.107 326.849 241.211 326.93C238.966 322.273 234.233 319.055 228.742 319.055H203.596V297.134C208.587 292.867 212.769 287.427 216.794 282.142C219.906 278.036 223.122 273.798 226.652 270.293C230.939 265.976 233.553 262.602 233.291 259.121C233.132 256.714 231.642 254.624 229.315 252.477H229.733C239.093 252.477 243.666 247.14 249.577 239.003C254.62 232.021 266.803 214.989 268.423 212.739C270.253 212.895 271.981 213.053 273.52 213.185C276.16 213.42 278.253 213.603 279.168 213.735L283.3 214.389C318.981 219.961 347.159 224.381 365.67 254.91C376.857 273.849 389.327 319.37 391.548 369.781C391.73 374.148 391.313 387.988 390.843 402.637ZM228.742 390.421V391.779C228.742 394.03 227.384 395.966 225.449 396.854C224.952 395.572 224.009 394.5 222.808 393.819C222.731 393.795 222.652 393.768 222.6 393.742C223.54 393.245 224.479 392.799 225.446 392.278C225.919 391.988 226.469 391.7 227.018 391.386C227.563 391.098 228.14 390.76 228.742 390.421ZM208.18 375.284C208.13 375.313 208.079 375.334 208.034 375.363C208.079 375.334 208.13 375.313 208.18 375.284ZM192.328 410.747C192.276 410.774 185.976 412.288 182.474 412.105C176.173 411.479 172.121 410.93 167.728 409.986C168.094 406.325 168.332 402.609 168.46 399C168.539 397.351 168.618 395.652 168.698 393.927C168.957 388.824 169.22 383.408 168.882 377.888C168.539 372.526 167.624 367.086 165.586 361.8C167.075 361.171 168.568 360.442 169.924 359.314C172.723 356.984 174.812 353.061 176.381 347.358C177.375 343.749 178.864 341.395 180.249 341.236C180.957 341.16 181.897 341.368 182.29 342.049C183.545 344.116 182.943 347.753 182.553 350.182C182.263 351.991 181.897 353.349 181.583 354.659C181.033 356.778 180.539 358.765 180.431 361.983L180.408 362.688C180.357 364.78 180.277 366.611 181.271 368.994C182.709 372.475 188.197 371.635 190.497 371.112C194.107 370.304 197.686 369.36 201.244 368.416C206.6 367.007 212.145 365.541 217.685 364.545C221.423 363.863 222.966 364.286 223.595 364.756C223.778 364.912 223.985 365.147 224.037 365.672C224.248 368.05 220.979 370.04 219.958 370.59C218.807 371.216 217.606 371.765 216.403 372.315C214.183 373.072 211.986 373.884 209.816 374.669L208.455 375.167C208.41 375.191 208.365 375.194 208.32 375.212C208.323 375.212 208.328 375.209 208.334 375.205L208.452 375.16C205.08 376.148 201.712 376.919 198.563 377.593C197.872 377.743 197.168 377.878 196.46 378.015C194.708 378.354 192.891 378.703 191.171 379.252C190.632 379.423 190.28 379.892 190.214 380.422C190.193 380.612 190.2 380.811 190.266 381.009C190.457 381.603 191.005 381.983 191.596 381.983C191.737 381.983 191.879 381.96 192.021 381.918C193.582 381.416 195.316 381.085 196.991 380.763C197.716 380.622 198.442 380.48 199.15 380.332C201.347 379.857 203.65 379.336 205.989 378.734C206.256 377.735 206.75 376.826 207.506 376.09C207.591 375.823 207.754 375.588 207.975 375.413C207.76 375.585 207.606 375.813 207.516 376.084C206.759 376.816 206.262 377.728 205.999 378.724C205.267 381.42 206.211 384.715 208.196 386.834C203.647 388.088 199.098 389.135 194.995 390.078C194.234 390.234 193.764 390.995 193.948 391.752C194.079 392.381 194.652 392.823 195.305 392.823C195.413 392.823 195.516 392.823 195.62 392.799C202.653 391.203 210.966 389.319 218.389 386.443C221.238 385.499 223.226 384.61 224.846 383.902C226.075 383.381 227.122 382.91 228.192 382.567C229.366 382.201 230.206 382.464 230.596 382.858C231.042 383.249 231.015 383.798 230.939 384.192C230.389 386.387 227.981 387.669 225.681 388.924C225.081 389.267 224.531 389.554 224.061 389.84C212.116 396.197 201.948 399.626 193.841 400.045C193.057 400.069 192.484 400.725 192.508 401.509C192.559 402.243 193.164 402.844 193.92 402.844C193.948 402.844 193.948 402.844 193.972 402.817C200.404 402.502 207.751 400.49 216.245 396.746C217.498 396.146 218.648 395.831 219.644 395.831C220.324 395.831 220.924 395.99 221.447 396.276C222.517 396.854 222.99 397.901 223.094 398.685C223.226 399.678 221.029 401.195 219.356 401.953C208.09 408.365 192.614 410.695 192.328 410.747ZM200.798 436.513H160.567C164.018 431.884 166.212 422.752 167.418 412.786C171.806 413.701 175.911 414.275 182.29 414.877C182.474 414.877 182.681 414.905 182.892 414.905C184.224 414.905 185.741 414.749 187.206 414.538C189.765 417.677 193.634 419.716 198 419.716H200.798V436.513ZM156.409 436.671C152.253 438.738 143.076 440.045 132.437 440.045C122.897 440.045 114.061 438.997 108.206 437.168C107.159 436.827 106.324 435.99 105.616 434.553C98.8982 420.791 111.394 367.451 115.578 356.255C116.804 352.986 121.771 351.154 129.508 351.154C142.92 351.154 160.591 356.91 162.681 361.959C166.944 372.343 166.395 383.75 165.898 393.795C165.818 395.52 165.742 397.221 165.687 398.897C164.854 422.046 160.305 434.708 156.409 436.671ZM99.4463 436.722C94.743 436.487 90.3002 436.254 86.3007 436.254C71.0332 436.149 52.9162 432.17 35.2724 425.056C19.6156 418.752 6.54186 401.459 4.18945 383.957C1.21113 361.644 11.4563 339.014 20.5036 319.055L21.5742 316.699C23.6676 312.042 25.8358 307.437 28.0295 302.833C31.5079 295.588 35.6902 287.793 40.8652 279.055L42.671 276.073C62.2495 243.714 77.6996 218.156 114.348 213.523C116.362 213.288 126.085 212.659 134.658 212.11C135.024 212.11 135.39 212.086 135.733 212.059C136.465 213.106 149.272 231.81 154.474 239.03C157.455 243.109 160.094 246.511 163.154 248.865C166.292 251.274 169.845 252.58 174.732 252.477C172.408 254.624 170.944 256.743 170.761 259.121C170.498 262.602 173.112 265.976 177.428 270.293C180.93 273.798 184.169 278.036 187.282 282.142C191.385 287.558 195.648 293.131 200.798 297.42V319.055H198C194.21 319.055 190.811 320.572 188.276 323.031C188.249 323.241 188.224 323.476 188.17 323.739C187.986 323.711 187.859 323.687 187.7 323.66C185.451 326.146 184.015 329.414 184.015 333.052V339.826C183.023 338.835 181.531 338.285 179.939 338.468C176.511 338.858 174.658 343.125 173.69 346.628C172.277 351.756 170.474 355.209 168.145 357.172C166.995 358.112 165.69 358.741 164.278 359.314C162.211 356.725 157.873 354.371 152.592 352.488C145.508 349.978 136.751 348.353 129.511 348.353C121.118 348.353 115.654 350.397 113.484 354.241C104.362 352.934 95.291 351.233 86.4833 348.8C85.7242 348.617 84.9635 349.035 84.7568 349.795C84.5487 350.528 84.9919 351.312 85.7481 351.496C94.4555 353.901 103.422 355.602 112.414 356.91C108.23 369.726 95.9439 421.158 103.109 435.783C103.316 436.201 103.551 436.568 103.789 436.933C102.324 436.854 100.86 436.803 99.4463 436.722ZM166.292 206.853C169.873 213.106 195.675 258.833 200.248 293.206C196.328 289.414 192.878 284.889 189.503 280.441C186.315 276.282 183.047 271.965 179.385 268.304C175.02 263.936 173.4 261.422 173.558 259.332C173.69 257.289 175.649 255.042 180.066 251.768C180.587 251.378 180.771 250.696 180.511 250.096C180.304 249.573 179.779 249.232 179.231 249.232C179.151 249.232 179.075 249.259 178.995 249.259C177.323 249.546 175.752 249.677 174.315 249.677C166.107 249.677 162.29 244.993 156.747 237.381C151.887 230.631 140.306 213.784 138.292 210.831C140.15 208.92 153.85 207.27 166.292 206.853ZM189.32 338.23C190 337.628 190.629 336.946 191.385 336.505C192.355 335.927 193.399 335.537 195.178 334.724C193.92 338.465 192.196 339.3 189.32 338.23ZM184.015 368.157C183.962 368.106 183.883 368.026 183.859 367.921C183.103 366.117 183.154 364.783 183.206 362.767L183.23 362.064C183.309 359.654 183.624 358.033 184.015 356.384V368.157ZM217.26 374.98C217.305 374.964 217.35 374.949 217.398 374.932C219.802 374.095 222.234 373.311 224.69 372.658C226.599 372.132 228.324 373.025 228.952 374.697C229.422 376.972 227.881 378.962 224.299 380.636C220.482 382.755 216.037 384.427 211.492 385.841C208.642 384.665 207.202 379.222 210.158 377.572L210.182 377.548C210.234 377.521 210.263 377.497 210.287 377.469L210.76 377.286C211.865 376.892 212.973 376.488 214.088 376.09C212.973 376.488 211.868 376.892 210.77 377.294L210.293 377.469C210.252 377.493 210.231 377.532 210.189 377.556C210.176 377.563 210.168 377.572 210.155 377.583C212.545 376.853 214.931 375.989 217.26 374.98ZM215.071 355.415C215.098 355.364 215.15 355.285 215.201 355.232C215.304 355.285 215.384 355.364 215.488 355.415H223.146C226.234 355.415 228.742 357.929 228.742 361.015V370.46C227.746 369.91 226.596 369.646 225.394 369.726C226.337 368.523 226.963 367.11 226.831 365.409C226.728 364.23 226.178 363.238 225.29 362.529C223.173 360.936 219.644 361.354 217.188 361.797C211.648 362.793 206.131 364.23 200.798 365.644V361.012C200.798 357.925 203.282 355.415 206.39 355.415H215.071ZM214.99 348.039C214.258 348.852 213.501 349.637 212.745 350.421C212.431 350.081 212.116 349.716 211.802 349.373C212.563 348.565 213.319 347.78 214.079 346.995C214.389 347.358 214.704 347.701 214.99 348.039ZM209.475 336.608C209.475 334.462 211.228 332.709 213.371 332.709C215.515 332.709 217.267 334.462 217.267 336.608C217.267 338.751 215.515 340.507 213.371 340.507C211.228 340.507 209.475 338.751 209.475 336.608ZM168.957 205.622C172.094 202.982 171.938 193.876 171.493 184.799C171.493 184.772 171.493 184.772 171.493 184.748C180.798 190.526 192.17 193.876 203.803 193.876C212.38 193.876 220.482 191.968 227.225 188.384C229.187 187.34 231.407 185.977 233.68 184.408C233.291 192.964 233.159 201.439 235.512 204.813L202.704 290.933C197.478 256.663 172.85 212.715 168.854 205.701C168.878 205.674 168.93 205.65 168.957 205.622ZM160.672 171.587C155.6 165.152 151.783 156.783 149.615 147.34C148.619 142.995 147.784 138.863 147.075 134.834C147.418 134.99 147.731 135.148 148.07 135.28C149.742 135.933 150.475 133.236 148.803 132.583C148.592 132.507 148.41 132.377 148.225 132.269C144.226 130.517 141.249 127.429 139.079 123.689C137.742 121.387 137.169 118.798 137.089 116.154C136.935 111.708 140.75 107.809 144.358 112.389C144.699 112.833 145.141 112.912 145.535 112.807C145.639 112.78 145.746 112.756 145.822 112.701C156.488 109.51 162.081 94.8338 164.225 82.9835C175.649 82.2273 188.564 81.808 202.809 81.808C216.977 81.808 229.84 82.2273 241.238 82.9595C241.134 94.4191 247.539 109.144 258.333 112.469C258.413 112.521 258.492 112.545 258.596 112.574C258.91 112.653 259.224 112.6 259.51 112.389C259.539 112.389 259.539 112.362 259.563 112.362C259.642 112.283 259.719 112.258 259.798 112.154C263.065 108.125 266.412 110.741 266.961 114.875C267.3 117.464 266.491 120.105 265.469 122.459C263.589 126.697 259.877 130.229 255.614 132.034C255.408 132.113 255.225 132.216 255.014 132.296C253.341 132.926 254.046 135.618 255.746 134.993C256.322 134.781 256.872 134.495 257.446 134.208C256.713 138.419 255.852 142.76 254.806 147.34C252.637 156.783 248.821 165.152 243.749 171.587C241.238 174.754 238.023 177.686 234.732 180.17C234.492 180.275 234.285 180.429 234.127 180.641C231.253 182.759 228.375 184.592 225.919 185.898C219.567 189.272 211.934 191.08 203.803 191.08C186.968 191.076 170.029 183.414 160.672 171.587ZM106.532 95.307C106.742 94.8608 107.212 94.0238 107.996 92.9501C112.099 90.0976 124.414 87.0115 143.366 84.8118C143.908 84.7534 144.477 84.695 145.038 84.6321C144.482 84.695 143.914 84.7579 143.366 84.8223L143.221 85.5904C142.106 91.5351 141.538 97.9963 141.504 104.905C115.155 101.74 107.212 97.5292 106.532 95.307ZM153.168 92.8738C151.445 96.6098 148.651 102.828 144.292 104.509C144.347 97.923 144.903 91.7747 145.967 86.1055L146.264 84.5018H146.267C149.663 84.135 153.272 83.7921 157.062 83.4821C155.808 86.6476 154.606 89.7861 153.168 92.8738ZM141.823 104.958C141.802 104.955 141.778 104.95 141.752 104.947C141.781 104.95 141.805 104.955 141.829 104.958C142.365 104.976 142.878 104.913 143.372 104.799C142.883 104.913 142.368 104.976 141.823 104.958ZM142.841 107.679C143.107 107.665 143.369 107.644 143.636 107.61C143.38 107.644 143.124 107.671 142.865 107.689C142.859 107.685 142.848 107.682 142.841 107.679ZM161.352 83.1676C159.338 93.7093 154.527 106.555 145.746 109.745C145.273 109.248 144.802 108.805 144.334 108.463C144.257 108.408 144.181 108.373 144.109 108.324C144.184 108.373 144.26 108.408 144.337 108.459C144.329 108.138 144.329 107.819 144.326 107.494C144.326 107.494 144.329 107.494 144.334 107.494C153.038 105.455 157.141 91.1458 160.202 83.247C160.567 83.2186 160.958 83.1946 161.352 83.1676ZM165.534 70.2706C167.442 71.2109 169.427 72.2067 171.756 73.3567C171.258 74.6639 170.841 75.7106 170.342 76.9939C168.15 76.6794 166.212 76.3919 164.722 76.1568C162.343 73.3567 163.572 71.8398 165.534 70.2706ZM184.747 77.7785C184.459 78.4314 184.38 79.0049 184.145 79.0842C183.727 79.216 183.283 79.2924 182.892 79.3193H182.709C181.478 79.3478 180.563 78.5107 180.46 75.4201C182.445 76.5237 183.595 77.1496 184.747 77.7785ZM223.878 76.5477C224.717 76.6001 225.578 76.6555 226.44 76.7064C226.39 77.3053 226.337 77.8818 226.286 78.4838C225.422 78.2487 224.558 78.0136 223.694 77.7501C223.75 77.3592 223.826 76.9415 223.878 76.5477ZM248.897 83.533C249.183 92.4545 252.633 102.656 260.084 107.288C260.087 107.291 260.094 107.291 260.097 107.295C260.094 107.571 260.091 107.845 260.087 108.125C260.087 108.125 260.087 108.125 260.084 108.125C259.534 108.49 258.986 108.96 258.437 109.538C249.445 106.216 243.957 93.0564 244.008 83.1392C245.68 83.271 247.301 83.4027 248.897 83.533ZM254.308 75.8154C251.38 78.9016 251.38 78.9016 246.962 74.6909C249.708 75.1101 251.746 75.4246 254.308 75.8154ZM262.364 105.116C262.243 105.13 262.122 105.148 261.995 105.169C261.99 105.166 261.987 105.166 261.984 105.161C262.114 105.148 262.24 105.13 262.364 105.116ZM260.684 104.3C261.051 104.57 261.427 104.826 261.821 105.058C261.424 104.823 261.048 104.57 260.684 104.3ZM260.845 107.758C260.647 107.834 260.467 107.935 260.282 108.03C260.464 107.927 260.65 107.834 260.837 107.755C260.837 107.755 260.84 107.758 260.845 107.758ZM261.027 84.6845C280.685 86.8827 293.44 90.0497 297.624 92.9531C298.408 94.0238 298.877 94.8338 299.088 95.2546C298.435 97.4258 290.256 101.846 262.913 105.037C262.886 98.0787 262.323 91.574 261.196 85.5904L261.03 84.6845C260.078 84.5812 259.111 84.4734 258.128 84.37L258.453 86.1085C259.479 91.5845 260.026 97.5232 260.108 103.859C254.544 99.4099 252.032 91.1203 251.721 83.7441C253.915 83.9553 256.06 84.1619 258.125 84.37C259.117 84.4734 260.084 84.5812 261.027 84.6845ZM286.121 82.669C287.352 83.4821 288.473 84.2383 289.493 85.0229C289.44 85.3104 289.389 85.5964 289.31 85.9154C287.925 85.7042 287.013 85.5485 285.155 85.231C285.496 84.3461 285.806 83.533 286.121 82.669ZM238.414 205.072C238.647 204.523 239.379 202.771 243.431 202.771C246.807 202.771 250.83 203.973 253 204.63L253.994 204.889C263.745 207.116 265.915 209.103 266.333 210.094C266.412 210.306 266.464 210.593 266.253 210.934C266.253 210.934 252.685 229.897 247.328 237.381C241.76 244.993 237.943 249.677 229.733 249.677C228.324 249.677 226.728 249.546 225.055 249.259C224.399 249.151 223.799 249.494 223.54 250.096C223.276 250.696 223.488 251.378 223.982 251.768C228.399 255.039 230.362 257.289 230.521 259.327C230.675 261.422 229.028 263.932 224.666 268.301C221.032 271.965 217.736 276.282 214.572 280.441C211.699 284.233 208.743 288.104 205.474 291.533L238.414 205.072ZM181.583 43.6648C181.845 44.3461 182.08 44.999 182.549 46.2808C181.164 45.9663 180.46 45.8361 178.498 45.4168C180.198 44.4495 180.905 44.0587 181.583 43.6648ZM196.587 11.0441C195.384 12.6133 194.549 13.6855 193.61 14.9163C193.084 13.9969 192.719 13.657 192.719 13.3186C192.667 11.068 193.764 10.4421 196.587 11.0441ZM197.422 22.1892C197.005 22.0844 196.587 22.005 196.196 21.9017C196.013 20.7502 195.855 19.5987 195.464 16.8794C196.954 18.6553 197.737 19.2288 197.948 19.9895C198.131 20.6184 197.634 21.4555 197.422 22.1892ZM206.756 20.1976C207.07 20.1452 207.385 20.0659 207.699 19.9895C208.09 20.9299 208.563 21.8732 208.77 22.866C208.77 22.9978 207.591 23.4156 206.417 23.9651C206.573 22.2131 206.679 21.2204 206.756 20.1976ZM213.451 12.0638C214.051 14.4177 214.418 15.9361 215.018 18.3693C212.013 16.6683 211.201 15.3057 213.451 12.0638ZM219.385 8.47902C221.761 9.76229 222.417 10.1247 223.75 10.8614C222.179 13.3471 220.821 15.5407 219.174 18.1851C216.953 14.2066 220.69 12.4816 219.385 8.47902ZM220.849 21.3521C220.352 20.4597 219.933 20.015 219.985 19.7544C220.482 17.8198 221.474 16.6952 224.196 18.0549C222.938 19.3097 221.92 20.277 220.849 21.3521ZM237.079 36.9655C240.008 39.8719 240.164 41.5969 238.52 43.3504C237.943 43.298 237.394 43.2186 236.82 43.1662C236.897 41.4936 236.949 39.821 237.079 36.9655ZM259.666 35.4756C259.539 35.5834 259.407 35.6867 259.248 35.8185C259.224 35.1896 259.196 34.7149 259.196 34.3495C259.38 34.7194 259.51 35.1087 259.666 35.4756ZM263.3 45.2341C263.483 45.8106 263.642 46.4126 263.797 47.0145C263.197 47.4323 262.568 47.8785 261.839 48.3996C262.125 46.0697 262.23 45.285 263.3 45.2341ZM394.346 369.675C392.332 324.051 381.538 276.282 368.073 253.496C348.886 221.816 318.693 217.081 283.717 211.613L279.613 210.987C278.595 210.831 276.554 210.648 273.76 210.413C272.399 210.282 270.829 210.15 269.158 209.991C269.106 209.653 269.026 209.314 268.896 209C267.379 205.466 260.478 203.507 254.623 202.172L253.787 201.962C251.511 201.257 247.224 199.973 243.436 199.973C240.299 199.973 238.388 200.89 237.187 202.041C235.853 198.09 236.299 188.304 236.482 184.278C236.506 183.52 236.558 182.864 236.558 182.289C239.984 179.673 243.304 176.614 245.943 173.317C251.276 166.565 255.276 157.802 257.525 147.969C258.778 142.5 259.774 137.375 260.586 132.404C265.548 128.922 268.923 123.43 269.732 117.281C270.308 112.939 268.008 108.833 264.844 107.629C288.764 104.726 301.205 100.617 301.885 95.4103C301.914 95.2786 301.938 95.1753 301.938 95.0435V94.9641C301.938 93.7887 301.337 92.6896 300.214 91.6699C297.182 87.1702 289.181 78.5107 270.411 72.1543C271.093 72.4418 271.482 73.201 271.249 73.9347C271.04 74.5082 270.516 74.8751 269.914 74.8751C269.783 74.8751 269.628 74.8511 269.473 74.8226C254.937 69.9037 236.638 67.3911 215.125 67.3911C211.567 69.6686 214.418 74.7433 209.267 75.3452C209.53 72.31 209.713 70.007 209.948 67.3911H190.576C170.188 67.3911 152.674 69.6177 138.53 74.038C137.798 74.2731 137.014 73.8553 136.779 73.1216C136.544 72.3894 136.962 71.6047 137.694 71.3667C152.126 66.8685 169.9 64.5909 190.576 64.5909H215.045C236.534 64.5909 254.858 67.0527 269.604 71.8922C269.497 71.3412 269.369 70.7647 269.261 70.2945C268.896 68.7253 268.529 67.0003 268.138 65.2438C268.111 65.1959 268.111 65.1435 268.088 65.0896C268.088 65.1435 268.114 65.1959 268.114 65.2438C267.2 65.6661 266.491 65.9805 264.533 66.8939C265.344 64.5385 265.656 63.5712 266.309 61.7144C267.093 63.1534 267.538 63.9381 268.035 64.826C266.52 57.9754 264.768 50.18 263.041 44.2383C260.848 37.515 257.763 30.5327 253.867 24.0175C253.425 23.73 252.979 23.4156 252.458 23.0247C252.561 22.8136 252.664 22.5785 252.796 22.3434C250.43 18.5894 247.78 15.0616 244.896 11.8362C245.025 11.9814 245.159 12.1192 245.266 12.2719C245.031 12.2465 244.824 12.2719 244.533 12.2465C244.637 12.0638 244.716 11.9081 244.821 11.7523C243.1 9.83716 241.322 8.00285 239.411 6.36021C234.679 2.27831 228.219 0.318217 222.079 0.397579C218.994 0.421538 216.171 0.920171 213.451 2.38462C210.525 3.98235 207.361 6.54439 203.962 6.85884C200.512 6.54439 197.351 3.98235 194.446 2.38462C191.728 0.920171 188.877 0.421538 185.797 0.397579C179.651 0.318217 173.196 2.27831 168.488 6.36021C160.384 13.3186 153.98 22.9738 149.356 32.939C149.849 33.1217 150.347 33.2774 150.816 33.4646C150.895 34.0141 150.975 34.5637 151.056 35.1087C150.112 35.528 149.145 35.9488 147.76 36.5238C146.689 39.1128 145.693 41.7017 144.858 44.2653C142.637 51.8256 140.388 62.5275 138.609 70.3215C138.558 70.5566 138.506 70.8441 138.453 71.1076C117.488 77.4641 108.732 86.8318 105.464 91.6189C104.314 92.6626 103.661 93.7617 103.661 94.9641C103.661 95.0165 103.685 95.0435 103.685 95.0689C103.685 95.2277 103.712 95.3834 103.741 95.5421C104.6 100.617 116.783 104.67 139.999 107.547C136.938 108.331 134.506 112.019 134.298 116.154C133.933 122.877 138.374 129.341 143.97 133.106C144.755 137.869 145.693 142.76 146.896 147.966C149.145 157.802 153.144 166.565 158.505 173.312C161.328 176.897 164.754 180.091 168.623 182.836C168.647 183.438 168.674 184.119 168.698 184.931C168.777 186.656 168.933 189.535 168.933 192.491C168.933 196.23 168.726 200.153 167.942 202.221C167.732 202.798 167.473 203.217 167.159 203.476C166.923 203.687 166.636 203.87 166.374 204.052C159.237 204.288 139.238 205.283 135.998 209.235C135.501 209.259 135.003 209.286 134.506 209.338C125.464 209.912 116.103 210.49 114.013 210.749C76.0285 215.563 59.4553 242.926 40.2677 274.634L38.4648 277.613C33.2629 286.432 29.0283 294.306 25.5258 301.63C23.3007 306.259 21.131 310.89 19.0421 315.547L17.9715 317.901C8.76549 338.201 -1.66237 361.224 1.42226 384.348C3.9304 403.052 17.4219 420.868 34.2302 427.647C52.187 434.891 70.6708 438.946 86.3007 439.025C90.2238 439.049 94.6142 439.287 99.2951 439.522C102.013 439.654 104.783 439.786 107.582 439.889C113.699 441.773 122.717 442.845 132.44 442.845C143.238 442.845 152.674 441.482 157.3 439.311H200.801C200.801 440.072 201.426 440.698 202.186 440.698C202.97 440.698 203.596 440.072 203.596 439.311H390.819C390.898 439.311 391.003 439.26 391.106 439.26C391.185 439.26 391.289 439.311 391.392 439.311C392.153 439.311 392.782 438.687 392.782 437.902C392.782 429.948 393.223 416.108 393.641 402.74C394.111 388.039 394.529 374.124 394.346 369.675Z" fill="#100F0D"/>
</svg>
