<svg width="30" height="28" viewBox="0 0 30 28" fill="none" xmlns="http://www.w3.org/2000/svg">
<path d="M24.3513 4.43573H5.05405C4.54655 4.43573 4.13513 4.81937 4.13513 5.29261V23.2871C4.13513 23.7603 4.54655 24.144 5.05405 24.144H24.3513C24.8589 24.144 25.2703 23.7603 25.2703 23.2871V5.29261C25.2703 4.81937 24.8589 4.43573 24.3513 4.43573Z" stroke="#FFCD9E" stroke-width="3" stroke-linecap="round" stroke-linejoin="round"/>
<path d="M14.2433 13.4331V19.4313" stroke="#FFCD9E" stroke-width="3" stroke-linecap="round" stroke-linejoin="round"/>
<path d="M9.64865 13.4331V19.4313" stroke="#FFCD9E" stroke-width="3" stroke-linecap="round" stroke-linejoin="round"/>
<path d="M14.2433 16.4322C14.2433 15.6368 14.5821 14.874 15.1853 14.3115C15.7884 13.7491 16.6065 13.4331 17.4595 13.4331C18.3125 13.4331 19.1305 13.7491 19.7337 14.3115C20.3368 14.874 20.6757 15.6368 20.6757 16.4322V19.4313" stroke="#FFCD9E" stroke-width="3" stroke-linecap="round" stroke-linejoin="round"/>
<path d="M9.64866 10.8624C10.6637 10.8624 11.4865 10.0951 11.4865 9.14863C11.4865 8.20215 10.6637 7.43488 9.64866 7.43488C8.63365 7.43488 7.81082 8.20215 7.81082 9.14863C7.81082 10.0951 8.63365 10.8624 9.64866 10.8624Z" fill="#FFCD9E"/>
</svg>
