<svg width="575" height="575" viewBox="0 0 575 575" fill="none" xmlns="http://www.w3.org/2000/svg">
<path d="M304.218 223.467C298.144 227.726 287.912 229.057 282.478 223.088C281.262 221.749 279.294 223.738 280.503 225.065C286.744 231.926 298.546 230.848 305.628 225.876C307.092 224.854 305.701 222.428 304.218 223.467Z" fill="#100F0D"/>
<path d="M281.221 165.31C282.927 163.637 277.729 161.238 276.842 160.853C272.517 158.97 267.601 158.607 263.057 159.844C261.664 160.224 255.119 162.306 256.32 164.823C257.16 166.582 261.947 165.182 263.298 165.043C266.793 164.678 270.271 164.998 273.736 165.482C275.732 165.759 279.532 166.969 281.221 165.31Z" fill="#100F0D"/>
<path d="M313.597 165.043C317.092 164.678 320.567 164.998 324.035 165.482C326.031 165.759 329.827 166.969 331.52 165.31C333.226 163.637 328.028 161.238 327.141 160.853C322.816 158.97 317.9 158.607 313.354 159.844C311.963 160.224 305.418 162.306 306.619 164.823C307.459 166.582 312.246 165.182 313.597 165.043Z" fill="#100F0D"/>
<path d="M269.087 186.62C266.927 186.61 265.19 183.816 265.208 180.384C265.229 176.952 266.993 174.176 269.152 174.186C271.315 174.2 273.052 176.994 273.035 180.426C273.014 183.858 271.249 186.634 269.087 186.62Z" fill="#100F0D"/>
<path d="M319.378 186.616C317.22 186.606 315.482 183.813 315.5 180.381C315.518 176.944 317.286 174.173 319.444 174.183C321.606 174.194 323.34 176.986 323.324 180.423C323.306 183.855 321.54 186.626 319.378 186.616Z" fill="#100F0D"/>
<path d="M295.065 210.405C296.865 210.377 296.865 207.581 295.065 207.608C287.594 207.726 291.88 198.248 292.533 194.681C293.794 187.788 295.614 181.118 295.632 174.065C295.635 172.265 292.841 172.265 292.837 174.069C292.817 183.73 289.249 192.665 288.081 202.12C287.418 207.494 289.519 210.492 295.065 210.405Z" fill="#100F0D"/>
<path d="M481.843 468.637C481.45 481.323 481.031 494.35 480.98 502.513H395.29C399.916 471.329 402.268 439.884 402.322 408.364C402.322 406.555 399.549 406.555 399.525 408.364C399.472 439.884 397.145 471.329 392.491 502.513H294.596V485.716H319.742C327.455 485.716 333.699 479.466 333.699 471.749V399.052C333.699 398.056 333.572 397.112 333.361 396.199C333.413 396.458 333.464 396.722 333.493 396.984C333.046 397.374 332.473 397.821 331.714 398.37C329.544 396.331 330.957 394.55 331.896 392.667C332.028 392.77 332.107 392.849 332.211 392.93C329.966 388.273 325.233 385.055 319.742 385.055H294.596V363.134C299.587 358.867 303.769 353.427 307.794 348.142C310.906 344.036 314.122 339.798 317.652 336.293C321.939 331.976 324.553 328.602 324.291 325.121C324.132 322.714 322.642 320.624 320.315 318.477H320.733C330.093 318.477 334.666 313.14 340.577 305.003C345.62 298.021 357.803 280.989 359.423 278.739C361.253 278.895 362.981 279.053 364.52 279.185C367.16 279.42 369.253 279.603 370.168 279.735L374.3 280.389C409.981 285.961 438.159 290.381 456.67 320.91C467.857 339.849 480.327 385.37 482.548 435.781C482.73 440.148 482.313 453.988 481.843 468.637ZM319.742 456.421V457.779C319.742 460.03 318.384 461.966 316.449 462.854C315.952 461.572 315.009 460.5 313.808 459.819C313.731 459.795 313.652 459.768 313.6 459.742C314.54 459.245 315.479 458.799 316.446 458.278C316.919 457.988 317.469 457.7 318.018 457.386C318.563 457.098 319.14 456.76 319.742 456.421ZM299.18 441.284C299.13 441.313 299.079 441.334 299.034 441.363C299.079 441.334 299.13 441.313 299.18 441.284ZM283.328 476.747C283.276 476.774 276.976 478.288 273.474 478.105C267.173 477.479 263.121 476.93 258.728 475.986C259.094 472.325 259.332 468.609 259.46 465C259.539 463.351 259.618 461.652 259.698 459.927C259.957 454.824 260.22 449.408 259.882 443.888C259.539 438.526 258.624 433.086 256.586 427.8C258.075 427.171 259.568 426.442 260.924 425.314C263.723 422.984 265.812 419.061 267.381 413.358C268.375 409.749 269.864 407.395 271.249 407.236C271.957 407.16 272.897 407.368 273.29 408.049C274.545 410.116 273.943 413.753 273.553 416.182C273.263 417.991 272.897 419.349 272.583 420.659C272.033 422.778 271.539 424.765 271.431 427.983L271.408 428.688C271.357 430.78 271.277 432.611 272.271 434.994C273.709 438.475 279.197 437.635 281.497 437.112C285.107 436.304 288.686 435.36 292.244 434.416C297.6 433.007 303.145 431.541 308.685 430.545C312.423 429.863 313.966 430.286 314.595 430.756C314.778 430.912 314.985 431.147 315.037 431.672C315.248 434.05 311.979 436.04 310.958 436.59C309.807 437.216 308.606 437.765 307.403 438.315C305.183 439.072 302.986 439.884 300.816 440.669L299.455 441.167C299.41 441.191 299.365 441.194 299.32 441.212C299.323 441.212 299.328 441.209 299.334 441.205L299.452 441.16C296.08 442.148 292.712 442.919 289.563 443.593C288.872 443.743 288.168 443.878 287.46 444.015C285.708 444.354 283.891 444.703 282.171 445.252C281.632 445.423 281.28 445.892 281.214 446.422C281.193 446.612 281.2 446.811 281.266 447.009C281.457 447.603 282.005 447.983 282.596 447.983C282.737 447.983 282.879 447.96 283.021 447.918C284.582 447.416 286.316 447.085 287.991 446.763C288.716 446.622 289.442 446.48 290.15 446.332C292.347 445.857 294.65 445.336 296.989 444.734C297.256 443.735 297.75 442.826 298.506 442.09C298.591 441.823 298.754 441.588 298.975 441.413C298.76 441.585 298.606 441.813 298.516 442.084C297.759 442.816 297.262 443.728 296.999 444.724C296.267 447.42 297.211 450.715 299.196 452.834C294.647 454.088 290.098 455.135 285.995 456.078C285.234 456.234 284.764 456.995 284.948 457.752C285.079 458.381 285.652 458.823 286.305 458.823C286.413 458.823 286.516 458.823 286.62 458.799C293.653 457.203 301.966 455.319 309.389 452.443C312.238 451.499 314.226 450.61 315.846 449.902C317.075 449.381 318.122 448.91 319.192 448.567C320.366 448.201 321.206 448.464 321.596 448.858C322.042 449.249 322.015 449.798 321.939 450.192C321.389 452.387 318.981 453.669 316.681 454.924C316.081 455.267 315.531 455.554 315.061 455.84C303.116 462.197 292.948 465.626 284.841 466.045C284.057 466.069 283.484 466.725 283.508 467.509C283.559 468.243 284.164 468.844 284.92 468.844C284.948 468.844 284.948 468.844 284.972 468.817C291.404 468.502 298.751 466.49 307.245 462.746C308.498 462.146 309.648 461.831 310.644 461.831C311.324 461.831 311.924 461.99 312.447 462.276C313.517 462.854 313.99 463.901 314.094 464.685C314.226 465.678 312.029 467.195 310.356 467.953C299.09 474.365 283.614 476.695 283.328 476.747ZM291.798 502.513H251.567C255.018 497.884 257.212 488.752 258.418 478.786C262.806 479.701 266.911 480.275 273.29 480.877C273.474 480.877 273.681 480.905 273.892 480.905C275.224 480.905 276.741 480.749 278.206 480.538C280.765 483.677 284.634 485.716 289 485.716H291.798V502.513ZM247.409 502.671C243.253 504.738 234.076 506.045 223.437 506.045C213.897 506.045 205.061 504.997 199.206 503.168C198.159 502.827 197.324 501.99 196.616 500.553C189.898 486.791 202.394 433.451 206.578 422.255C207.804 418.986 212.771 417.154 220.508 417.154C233.92 417.154 251.591 422.91 253.681 427.959C257.944 438.343 257.395 449.75 256.898 459.795C256.818 461.52 256.742 463.221 256.687 464.897C255.854 488.046 251.305 500.708 247.409 502.671ZM190.446 502.722C185.743 502.487 181.3 502.254 177.301 502.254C162.033 502.149 143.916 498.17 126.272 491.056C110.616 484.752 97.5419 467.459 95.1895 449.957C92.2111 427.644 102.456 405.014 111.504 385.055L112.574 382.699C114.668 378.042 116.836 373.437 119.029 368.833C122.508 361.588 126.69 353.793 131.865 345.055L133.671 342.073C153.249 309.714 168.7 284.156 205.348 279.523C207.362 279.288 217.085 278.659 225.658 278.11C226.024 278.11 226.39 278.086 226.733 278.059C227.465 279.106 240.272 297.81 245.474 305.03C248.455 309.109 251.094 312.511 254.154 314.865C257.292 317.274 260.845 318.58 265.732 318.477C263.408 320.624 261.944 322.743 261.761 325.121C261.498 328.602 264.112 331.976 268.428 336.293C271.93 339.798 275.169 344.036 278.282 348.142C282.385 353.558 286.648 359.131 291.798 363.42V385.055H289C285.21 385.055 281.811 386.572 279.276 389.031C279.249 389.241 279.224 389.476 279.17 389.739C278.986 389.711 278.859 389.687 278.7 389.66C276.451 392.146 275.015 395.414 275.015 399.052V405.826C274.023 404.835 272.531 404.285 270.939 404.468C267.511 404.858 265.658 409.125 264.69 412.628C263.277 417.756 261.474 421.209 259.145 423.172C257.995 424.112 256.69 424.741 255.278 425.314C253.211 422.725 248.873 420.371 243.592 418.488C236.508 415.978 227.751 414.353 220.511 414.353C212.118 414.353 206.654 416.397 204.484 420.241C195.362 418.934 186.291 417.233 177.483 414.8C176.724 414.617 175.963 415.035 175.757 415.795C175.549 416.528 175.992 417.312 176.748 417.496C185.455 419.901 194.422 421.602 203.414 422.91C199.23 435.726 186.944 487.158 194.109 501.783C194.316 502.201 194.551 502.568 194.789 502.933C193.324 502.854 191.86 502.803 190.446 502.722ZM257.292 272.853C260.873 279.106 286.675 324.833 291.248 359.206C287.328 355.414 283.878 350.889 280.503 346.441C277.315 342.282 274.047 337.965 270.385 334.304C266.02 329.936 264.4 327.422 264.558 325.332C264.69 323.289 266.649 321.042 271.066 317.768C271.587 317.378 271.771 316.696 271.511 316.096C271.304 315.573 270.779 315.232 270.231 315.232C270.151 315.232 270.075 315.259 269.995 315.259C268.323 315.546 266.752 315.677 265.315 315.677C257.107 315.677 253.29 310.993 247.747 303.381C242.887 296.631 231.306 279.784 229.292 276.831C231.15 274.92 244.85 273.27 257.292 272.853ZM280.32 404.23C281 403.628 281.629 402.946 282.385 402.505C283.355 401.927 284.399 401.537 286.178 400.724C284.92 404.465 283.196 405.3 280.32 404.23ZM275.015 434.157C274.962 434.106 274.883 434.026 274.859 433.921C274.103 432.117 274.154 430.783 274.206 428.767L274.23 428.064C274.309 425.654 274.624 424.033 275.015 422.384V434.157ZM308.26 440.98C308.305 440.964 308.35 440.949 308.398 440.932C310.802 440.095 313.234 439.311 315.69 438.658C317.599 438.132 319.324 439.025 319.952 440.697C320.422 442.972 318.881 444.962 315.299 446.636C311.482 448.755 307.037 450.427 302.492 451.841C299.642 450.665 298.202 445.222 301.158 443.572L301.182 443.548C301.234 443.521 301.263 443.497 301.287 443.469L301.76 443.286C302.865 442.892 303.973 442.488 305.088 442.09C303.973 442.488 302.868 442.892 301.77 443.294L301.293 443.469C301.252 443.493 301.231 443.532 301.189 443.556C301.176 443.563 301.168 443.572 301.155 443.583C303.545 442.853 305.931 441.989 308.26 440.98ZM306.071 421.415C306.098 421.364 306.15 421.285 306.201 421.232C306.304 421.285 306.384 421.364 306.488 421.415H314.146C317.234 421.415 319.742 423.929 319.742 427.015V436.46C318.746 435.91 317.596 435.646 316.394 435.726C317.337 434.523 317.963 433.11 317.831 431.409C317.728 430.23 317.178 429.238 316.29 428.529C314.173 426.936 310.644 427.354 308.188 427.797C302.648 428.793 297.131 430.23 291.798 431.644V427.012C291.798 423.925 294.282 421.415 297.39 421.415H306.071ZM305.99 414.039C305.258 414.852 304.501 415.637 303.745 416.421C303.431 416.081 303.116 415.716 302.802 415.373C303.563 414.565 304.319 413.78 305.079 412.995C305.389 413.358 305.704 413.701 305.99 414.039ZM300.475 402.608C300.475 400.462 302.228 398.709 304.371 398.709C306.515 398.709 308.267 400.462 308.267 402.608C308.267 404.751 306.515 406.507 304.371 406.507C302.228 406.507 300.475 404.751 300.475 402.608ZM259.957 271.622C263.094 268.982 262.938 259.876 262.493 250.799C262.493 250.772 262.493 250.772 262.493 250.748C271.798 256.526 283.17 259.876 294.803 259.876C303.38 259.876 311.482 257.968 318.225 254.384C320.187 253.34 322.407 251.977 324.68 250.408C324.291 258.964 324.159 267.439 326.512 270.813L293.704 356.933C288.478 322.663 263.85 278.715 259.854 271.701C259.878 271.674 259.93 271.65 259.957 271.622ZM251.672 237.587C246.6 231.152 242.783 222.783 240.615 213.34C239.619 208.995 238.784 204.863 238.075 200.834C238.418 200.99 238.731 201.148 239.07 201.28C240.742 201.933 241.475 199.236 239.803 198.583C239.592 198.507 239.41 198.377 239.225 198.269C235.226 196.517 232.249 193.429 230.079 189.689C228.742 187.387 228.169 184.798 228.089 182.154C227.935 177.708 231.75 173.809 235.358 178.389C235.699 178.833 236.141 178.912 236.535 178.807C236.639 178.78 236.746 178.756 236.822 178.701C247.488 175.51 253.081 160.834 255.225 148.983C266.649 148.227 279.564 147.808 293.809 147.808C307.977 147.808 320.84 148.227 332.238 148.959C332.134 160.419 338.539 175.144 349.333 178.469C349.413 178.521 349.492 178.545 349.596 178.574C349.91 178.653 350.224 178.6 350.51 178.389C350.539 178.389 350.539 178.362 350.563 178.362C350.642 178.283 350.719 178.258 350.798 178.154C354.065 174.125 357.412 176.741 357.961 180.875C358.3 183.464 357.491 186.105 356.469 188.459C354.589 192.697 350.877 196.229 346.614 198.034C346.408 198.113 346.225 198.216 346.014 198.296C344.341 198.926 345.046 201.618 346.746 200.993C347.322 200.781 347.872 200.495 348.446 200.208C347.713 204.419 346.852 208.76 345.806 213.34C343.637 222.783 339.821 231.152 334.749 237.587C332.238 240.754 329.023 243.686 325.732 246.17C325.492 246.275 325.285 246.429 325.127 246.641C322.253 248.759 319.375 250.592 316.919 251.898C310.567 255.272 302.934 257.08 294.803 257.08C277.968 257.076 261.029 249.414 251.672 237.587ZM197.532 161.307C197.742 160.861 198.212 160.024 198.996 158.95C203.099 156.098 215.414 153.011 234.366 150.812C234.908 150.753 235.477 150.695 236.038 150.632C235.482 150.695 234.914 150.758 234.366 150.822L234.221 151.59C233.106 157.535 232.538 163.996 232.504 170.905C206.155 167.74 198.212 163.529 197.532 161.307ZM244.168 158.874C242.445 162.61 239.651 168.828 235.292 170.509C235.347 163.923 235.903 157.775 236.967 152.106L237.264 150.502H237.267C240.663 150.135 244.272 149.792 248.062 149.482C246.808 152.648 245.606 155.786 244.168 158.874ZM232.823 170.958C232.802 170.955 232.778 170.95 232.752 170.947C232.781 170.95 232.805 170.955 232.829 170.958C233.365 170.976 233.878 170.913 234.372 170.799C233.883 170.913 233.368 170.976 232.823 170.958ZM233.841 173.679C234.107 173.665 234.369 173.644 234.636 173.61C234.38 173.644 234.124 173.671 233.865 173.689C233.859 173.685 233.848 173.682 233.841 173.679ZM252.352 149.168C250.338 159.709 245.527 172.555 236.746 175.745C236.273 175.248 235.802 174.805 235.334 174.463C235.257 174.408 235.181 174.373 235.109 174.324C235.184 174.373 235.26 174.408 235.337 174.459C235.329 174.138 235.329 173.819 235.326 173.494C235.326 173.494 235.329 173.494 235.334 173.494C244.038 171.455 248.141 157.146 251.202 149.247C251.567 149.219 251.958 149.195 252.352 149.168ZM256.534 136.271C258.442 137.211 260.427 138.207 262.756 139.357C262.258 140.664 261.841 141.711 261.342 142.994C259.15 142.679 257.212 142.392 255.722 142.157C253.343 139.357 254.572 137.84 256.534 136.271ZM275.747 143.779C275.459 144.431 275.38 145.005 275.145 145.084C274.727 145.216 274.283 145.292 273.892 145.319H273.709C272.478 145.348 271.563 144.511 271.46 141.42C273.445 142.524 274.595 143.15 275.747 143.779ZM314.878 142.548C315.717 142.6 316.578 142.655 317.44 142.706C317.39 143.305 317.337 143.882 317.286 144.484C316.422 144.249 315.558 144.014 314.694 143.75C314.75 143.359 314.826 142.941 314.878 142.548ZM339.897 149.533C340.183 158.454 343.633 168.656 351.084 173.288C351.087 173.291 351.094 173.291 351.097 173.295C351.094 173.571 351.091 173.845 351.087 174.125C351.087 174.125 351.087 174.125 351.084 174.125C350.534 174.49 349.986 174.96 349.437 175.538C340.445 172.216 334.957 159.056 335.008 149.139C336.68 149.271 338.301 149.403 339.897 149.533ZM345.308 141.815C342.38 144.902 342.38 144.902 337.962 140.691C340.708 141.11 342.746 141.425 345.308 141.815ZM353.364 171.116C353.243 171.13 353.122 171.148 352.995 171.169C352.99 171.166 352.987 171.166 352.984 171.161C353.114 171.148 353.24 171.13 353.364 171.116ZM351.684 170.3C352.051 170.57 352.427 170.826 352.821 171.058C352.424 170.823 352.048 170.57 351.684 170.3ZM351.845 173.758C351.647 173.834 351.467 173.935 351.282 174.03C351.464 173.927 351.65 173.834 351.837 173.755C351.837 173.755 351.84 173.758 351.845 173.758ZM352.027 150.685C371.685 152.883 384.44 156.05 388.624 158.953C389.408 160.024 389.877 160.834 390.088 161.255C389.435 163.426 381.256 167.846 353.913 171.037C353.886 164.079 353.323 157.574 352.196 151.59L352.03 150.685C351.078 150.581 350.111 150.473 349.128 150.37L349.453 152.109C350.479 157.584 351.026 163.523 351.108 169.859C345.544 165.41 343.032 157.12 342.721 149.744C344.915 149.955 347.06 150.162 349.125 150.37C350.117 150.473 351.084 150.581 352.027 150.685ZM377.121 148.669C378.352 149.482 379.473 150.238 380.493 151.023C380.44 151.31 380.389 151.596 380.31 151.915C378.925 151.704 378.013 151.549 376.155 151.231C376.496 150.346 376.806 149.533 377.121 148.669ZM329.414 271.072C329.647 270.523 330.379 268.771 334.431 268.771C337.807 268.771 341.83 269.973 344 270.63L344.994 270.889C354.745 273.116 356.915 275.103 357.333 276.094C357.412 276.306 357.464 276.593 357.253 276.934C357.253 276.934 343.685 295.897 338.328 303.381C332.76 310.993 328.943 315.677 320.733 315.677C319.324 315.677 317.728 315.546 316.055 315.259C315.399 315.151 314.799 315.494 314.54 316.096C314.276 316.696 314.488 317.378 314.982 317.768C319.399 321.039 321.362 323.289 321.521 325.327C321.675 327.422 320.028 329.932 315.666 334.301C312.032 337.965 308.736 342.282 305.572 346.441C302.699 350.233 299.743 354.104 296.474 357.533L329.414 271.072ZM272.583 109.665C272.845 110.346 273.08 110.999 273.549 112.281C272.164 111.966 271.46 111.836 269.498 111.417C271.198 110.449 271.905 110.059 272.583 109.665ZM287.587 77.0441C286.384 78.6133 285.549 79.6855 284.61 80.9163C284.084 79.9969 283.719 79.657 283.719 79.3186C283.667 77.068 284.764 76.4421 287.587 77.0441ZM288.422 88.1892C288.005 88.0844 287.587 88.005 287.196 87.9017C287.013 86.7502 286.855 85.5987 286.464 82.8794C287.954 84.6553 288.737 85.2288 288.948 85.9895C289.131 86.6184 288.634 87.4555 288.422 88.1892ZM297.756 86.1976C298.07 86.1452 298.385 86.0659 298.699 85.9895C299.09 86.9299 299.563 87.8732 299.77 88.866C299.77 88.9978 298.591 89.4156 297.417 89.9651C297.573 88.2131 297.679 87.2204 297.756 86.1976ZM304.451 78.0638C305.051 80.4177 305.418 81.9361 306.018 84.3693C303.013 82.6683 302.201 81.3057 304.451 78.0638ZM310.385 74.479C312.761 75.7623 313.417 76.1247 314.75 76.8614C313.179 79.3471 311.821 81.5407 310.174 84.1851C307.953 80.2066 311.69 78.4816 310.385 74.479ZM311.849 87.3521C311.352 86.4597 310.933 86.015 310.985 85.7544C311.482 83.8198 312.474 82.6952 315.196 84.0549C313.938 85.3097 312.92 86.277 311.849 87.3521ZM328.079 102.965C331.008 105.872 331.164 107.597 329.52 109.35C328.943 109.298 328.394 109.219 327.82 109.166C327.897 107.494 327.949 105.821 328.079 102.965ZM350.666 101.476C350.539 101.583 350.407 101.687 350.248 101.818C350.224 101.19 350.196 100.715 350.196 100.35C350.38 100.719 350.51 101.109 350.666 101.476ZM354.3 111.234C354.483 111.811 354.642 112.413 354.797 113.015C354.197 113.432 353.568 113.879 352.839 114.4C353.125 112.07 353.23 111.285 354.3 111.234ZM485.346 435.675C483.332 390.051 472.538 342.282 459.073 319.496C439.886 287.816 409.693 283.081 374.717 277.613L370.613 276.987C369.595 276.831 367.554 276.648 364.76 276.413C363.399 276.282 361.829 276.15 360.158 275.991C360.106 275.653 360.026 275.314 359.896 275C358.379 271.466 351.478 269.507 345.623 268.172L344.787 267.962C342.511 267.257 338.224 265.973 334.436 265.973C331.299 265.973 329.388 266.89 328.187 268.041C326.853 264.09 327.299 254.304 327.482 250.278C327.506 249.52 327.558 248.864 327.558 248.289C330.984 245.673 334.304 242.614 336.943 239.317C342.276 232.565 346.276 223.802 348.525 213.969C349.778 208.5 350.774 203.375 351.586 198.404C356.548 194.922 359.923 189.43 360.732 183.281C361.308 178.939 359.008 174.833 355.844 173.629C379.764 170.726 392.205 166.617 392.885 161.41C392.914 161.279 392.938 161.175 392.938 161.043V160.964C392.938 159.789 392.337 158.69 391.214 157.67C388.182 153.17 380.181 144.511 361.411 138.154C362.093 138.442 362.482 139.201 362.249 139.935C362.04 140.508 361.516 140.875 360.914 140.875C360.783 140.875 360.628 140.851 360.473 140.823C345.937 135.904 327.638 133.391 306.125 133.391C302.567 135.669 305.418 140.743 300.267 141.345C300.53 138.31 300.713 136.007 300.948 133.391H281.576C261.188 133.391 243.674 135.618 229.53 140.038C228.798 140.273 228.014 139.855 227.779 139.122C227.544 138.389 227.962 137.605 228.694 137.367C243.126 132.868 260.9 130.591 281.576 130.591H306.045C327.534 130.591 345.858 133.053 360.604 137.892C360.497 137.341 360.369 136.765 360.261 136.295C359.896 134.725 359.529 133 359.138 131.244C359.111 131.196 359.111 131.143 359.088 131.09C359.088 131.143 359.114 131.196 359.114 131.244C358.2 131.666 357.491 131.981 355.533 132.894C356.344 130.539 356.656 129.571 357.309 127.714C358.093 129.153 358.538 129.938 359.035 130.826C357.52 123.975 355.768 116.18 354.041 110.238C351.848 103.515 348.763 96.5327 344.867 90.0175C344.425 89.73 343.979 89.4156 343.458 89.0247C343.561 88.8136 343.664 88.5785 343.796 88.3434C341.43 84.5894 338.78 81.0616 335.896 77.8362C336.025 77.9814 336.159 78.1192 336.266 78.2719C336.031 78.2465 335.824 78.2719 335.533 78.2465C335.637 78.0638 335.716 77.9081 335.821 77.7523C334.1 75.8372 332.322 74.0029 330.411 72.3602C325.679 68.2783 319.219 66.3182 313.079 66.3976C309.994 66.4215 307.171 66.9202 304.451 68.3846C301.525 69.9823 298.361 72.5444 294.962 72.8588C291.512 72.5444 288.351 69.9823 285.446 68.3846C282.728 66.9202 279.877 66.4215 276.797 66.3976C270.651 66.3182 264.196 68.2783 259.488 72.3602C251.384 79.3186 244.98 88.9738 240.356 98.939C240.849 99.1217 241.347 99.2774 241.816 99.4646C241.895 100.014 241.975 100.564 242.056 101.109C241.112 101.528 240.145 101.949 238.76 102.524C237.689 105.113 236.693 107.702 235.858 110.265C233.637 117.826 231.388 128.528 229.609 136.321C229.558 136.557 229.506 136.844 229.453 137.108C208.488 143.464 199.732 152.832 196.464 157.619C195.314 158.663 194.661 159.762 194.661 160.964C194.661 161.017 194.685 161.043 194.685 161.069C194.685 161.228 194.712 161.383 194.741 161.542C195.6 166.617 207.783 170.67 230.999 173.547C227.938 174.331 225.506 178.019 225.298 182.154C224.933 188.877 229.374 195.341 234.97 199.106C235.755 203.869 236.693 208.76 237.896 213.966C240.145 223.802 244.144 232.565 249.505 239.312C252.328 242.897 255.754 246.091 259.623 248.836C259.647 249.438 259.674 250.119 259.698 250.931C259.777 252.656 259.933 255.535 259.933 258.491C259.933 262.23 259.726 266.153 258.942 268.221C258.732 268.798 258.473 269.217 258.159 269.476C257.923 269.687 257.636 269.87 257.374 270.052C250.237 270.288 230.238 271.283 226.998 275.235C226.501 275.259 226.003 275.286 225.506 275.338C216.464 275.912 207.103 276.49 205.013 276.749C167.029 281.563 150.455 308.926 131.268 340.634L129.465 343.613C124.263 352.432 120.028 360.306 116.526 367.63C114.301 372.259 112.131 376.89 110.042 381.547L108.971 383.901C99.7655 404.201 89.3376 427.224 92.4223 450.348C94.9304 469.052 108.422 486.868 125.23 493.647C143.187 500.891 161.671 504.946 177.301 505.025C181.224 505.049 185.614 505.287 190.295 505.522C193.013 505.654 195.783 505.786 198.582 505.889C204.699 507.773 213.717 508.845 223.44 508.845C234.238 508.845 243.674 507.482 248.3 505.311H291.801C291.801 506.072 292.426 506.698 293.186 506.698C293.97 506.698 294.596 506.072 294.596 505.311H481.819C481.898 505.311 482.003 505.26 482.106 505.26C482.185 505.26 482.289 505.311 482.392 505.311C483.153 505.311 483.782 504.687 483.782 503.902C483.782 495.948 484.223 482.108 484.641 468.74C485.111 454.039 485.529 440.124 485.346 435.675Z" fill="#100F0D"/>
<path d="M335.821 77.7493C335.816 77.7523 335.816 77.7523 335.816 77.7523C335.841 77.781 335.869 77.8082 335.893 77.8369C335.866 77.8051 335.845 77.781 335.821 77.7493Z" fill="#100F0D"/>
<path d="M277.87 213.063C277.405 214.463 276.942 215.86 276.475 217.26C275.901 218.975 278.6 219.704 279.166 218.003C279.636 216.603 280.098 215.206 280.564 213.81C281.138 212.091 278.438 211.359 277.87 213.063Z" fill="#100F0D"/>
<path d="M284.227 217.633C284.198 217.964 284.333 217.184 284.351 217.111C284.465 216.627 284.592 216.146 284.716 215.663C284.896 214.971 285.097 214.27 285.155 213.554C285.303 211.753 282.506 211.766 282.361 213.554C282.388 213.219 282.253 214 282.237 214.075C282.12 214.56 281.991 215.041 281.87 215.52C281.69 216.215 281.491 216.914 281.431 217.633C281.283 219.43 284.081 219.417 284.227 217.633Z" fill="#100F0D"/>
<path d="M289.231 217.63C289.276 216.299 289.649 215.002 289.698 213.668C289.763 211.864 286.968 211.871 286.903 213.668C286.855 214.999 286.485 216.294 286.437 217.63C286.371 219.434 289.165 219.427 289.231 217.63Z" fill="#100F0D"/>
<path d="M291.441 213.786C291.441 215.065 291.441 216.35 291.441 217.63C291.441 219.434 294.237 219.434 294.237 217.63C294.237 216.35 294.237 215.065 294.237 213.786C294.237 211.982 291.441 211.982 291.441 213.786Z" fill="#100F0D"/>
<path d="M306.512 218.003C307.078 219.707 309.78 218.978 309.206 217.26C308.741 215.86 308.278 214.463 307.808 213.063C307.242 211.359 304.543 212.091 305.117 213.806C305.583 215.206 306.045 216.603 306.512 218.003Z" fill="#100F0D"/>
<path d="M301.266 216.841C301.303 217 301.477 217.885 301.459 217.63C301.604 219.413 304.401 219.427 304.253 217.63C304.194 216.91 303.994 216.215 303.814 215.517C303.714 215.126 303.61 214.733 303.515 214.342C303.473 214.183 303.301 213.298 303.32 213.554C303.175 211.771 300.378 211.757 300.526 213.554C300.584 214.273 300.785 214.968 300.965 215.665C301.065 216.056 301.165 216.45 301.266 216.841Z" fill="#100F0D"/>
<path d="M295.984 213.668C296.032 214.999 296.402 216.299 296.45 217.63C296.516 219.427 299.31 219.434 299.244 217.63C299.196 216.299 298.826 214.999 298.778 213.668C298.713 211.871 295.918 211.864 295.984 213.668Z" fill="#100F0D"/>
</svg>
