<svg width="30" height="28" viewBox="0 0 30 28" fill="none" xmlns="http://www.w3.org/2000/svg">
<path d="M15.2973 17.9317C17.4542 17.9317 19.2027 16.3012 19.2027 14.2899C19.2027 12.2787 17.4542 10.6482 15.2973 10.6482C13.1404 10.6482 11.3919 12.2787 11.3919 14.2899C11.3919 16.3012 13.1404 17.9317 15.2973 17.9317Z" stroke="#FFCD9E" stroke-width="3" stroke-linecap="round" stroke-linejoin="round"/>
<path d="M20.8108 4.00732H9.78381C6.73878 4.00732 4.27029 6.30915 4.27029 9.1486V19.4312C4.27029 22.2706 6.73878 24.5724 9.78381 24.5724H20.8108C23.8559 24.5724 26.3243 22.2706 26.3243 19.4312V9.1486C26.3243 6.30915 23.8559 4.00732 20.8108 4.00732Z" stroke="#FFCD9E" stroke-width="3" stroke-linecap="round" stroke-linejoin="round"/>
<path d="M21.2703 10.434C22.2853 10.434 23.1081 9.66671 23.1081 8.72023C23.1081 7.77375 22.2853 7.00647 21.2703 7.00647C20.2553 7.00647 19.4324 7.77375 19.4324 8.72023C19.4324 9.66671 20.2553 10.434 21.2703 10.434Z" fill="#FFCD9E"/>
</svg>
